<svg width="140" height="30" viewBox="0 0 140 30" fill="none" xmlns="http://www.w3.org/2000/svg">
<path d="M0.259941 28.806C0.596284 28.3402 0.880882 27.7581 1.11374 27.0596C1.34659 26.361 1.46301 25.6495 1.46301 24.9251V5.90875C1.46301 5.18432 1.34659 4.47282 1.11374 3.77426C0.880882 3.0757 0.596284 2.49357 0.259941 2.02787V1.83382H6.35293V2.02787C6.01658 2.49357 5.73199 3.0757 5.49913 3.77426C5.26628 4.47282 5.14985 5.18432 5.14985 5.90875V24.9251C5.14985 25.6495 5.26628 26.361 5.49913 27.0596C5.73199 27.7581 6.01658 28.3402 6.35293 28.806V29H0.259941V28.806ZM20.0136 29.2329C19.0305 29.2329 18.1637 28.9871 17.4134 28.4955C16.689 28.0039 15.8223 27.1501 14.8133 25.9341L6.12007 15.4945V15.3005L14.9685 5.63709C15.6153 4.93853 15.9646 4.27878 16.0163 3.65784C16.0681 3.01102 15.874 2.4677 15.4342 2.02787V1.83382H20.7122V2.02787C19.8843 2.41596 19.0952 2.93341 18.3449 3.58022C17.5945 4.22703 16.7925 5.00321 15.9387 5.90875L9.03074 13.3212L18.9658 25.2744C19.7937 26.2834 20.4793 27.0596 21.0227 27.6029C21.566 28.1203 22.0188 28.4308 22.381 28.5343V28.7283C21.5531 29.0647 20.7639 29.2329 20.0136 29.2329ZM27.685 29.4269C26.4432 29.4269 25.3436 29.1423 24.3863 28.5731C23.4549 27.978 22.7175 27.163 22.1742 26.1281C21.6567 25.0674 21.398 23.8772 21.398 22.5577V14.6795C21.398 13.8257 21.2945 13.1272 21.0875 12.5839C20.9064 12.0147 20.6089 11.5231 20.1949 11.1091V10.9151L24.658 9.16869H24.852V22.5189C24.852 23.8643 25.253 24.9768 26.0551 25.8565C26.8571 26.7362 27.905 27.176 29.1986 27.176C30.0783 27.176 30.8932 26.9819 31.6435 26.5939C32.3938 26.2058 32.9889 25.6624 33.4288 24.9639C33.8686 24.2395 34.0885 23.4245 34.0885 22.5189V14.6795C34.0885 13.8257 33.985 13.1143 33.778 12.5451C33.5969 11.9759 33.2994 11.4972 32.8854 11.1091V10.9151L37.3484 9.16869H37.5425V24.6146C37.5425 25.4425 37.646 26.1411 37.853 26.7103C38.0599 27.2536 38.3704 27.6934 38.7844 28.0298V28.2238L34.2825 29.4269H34.0885V25.5072H33.8945C33.377 26.6715 32.575 27.6158 31.4883 28.3402C30.4017 29.0647 29.1339 29.4269 27.685 29.4269ZM47.1113 29.4269C45.4813 29.4269 44.0713 29.0129 42.8811 28.185C41.691 27.3571 40.7725 26.2187 40.1257 24.7698C39.5048 23.321 39.1943 21.691 39.1943 19.8799C39.1943 17.836 39.6082 15.999 40.4362 14.3691C41.29 12.7391 42.4284 11.4713 43.8513 10.5658C45.2743 9.6344 46.8267 9.16869 48.5084 9.16869C49.5433 9.16869 50.4618 9.31099 51.2638 9.59559C52.0659 9.88019 52.7774 10.2941 53.3983 10.8375V5.59828C53.3983 4.74448 53.2948 4.03299 53.0878 3.46379C52.9067 2.8946 52.6092 2.40302 52.1952 1.98906V1.79501L56.6583 0.0874246H56.8523V24.5758C56.8523 25.4296 56.9558 26.1411 57.1628 26.7103C57.3698 27.2536 57.6802 27.6805 58.0942 27.991V28.185L53.5924 29.4269H53.3983V25.6236H53.2043C52.6609 26.7362 51.8718 27.6546 50.8369 28.3791C49.802 29.0776 48.5601 29.4269 47.1113 29.4269ZM48.4696 27.2536C49.401 27.2536 50.2289 27.0596 50.9534 26.6715C51.6778 26.2575 52.247 25.7012 52.6609 25.0027C53.1008 24.2783 53.3466 23.4762 53.3983 22.5965V15.3393C53.3466 14.5114 53.1267 13.6964 52.7386 12.8943C52.3505 12.0664 51.7942 11.3937 51.0698 10.8763C50.3454 10.333 49.4657 10.0613 48.4308 10.0613C47.2665 10.0613 46.2446 10.4235 45.3649 11.1479C44.5111 11.8724 43.8513 12.9073 43.3856 14.2526C42.9458 15.5721 42.7259 17.0986 42.7259 18.8321C42.7259 20.5397 42.9717 22.0273 43.4633 23.2951C43.9548 24.5629 44.6275 25.546 45.4813 26.2446C46.361 26.9173 47.3571 27.2536 48.4696 27.2536ZM63.247 29.4269C61.7205 29.4269 60.5174 29.0517 59.6377 28.3014C58.7839 27.5511 58.3571 26.5809 58.3571 25.3908C58.3571 23.9937 58.8745 22.8294 59.9094 21.898C60.9443 20.9666 62.2638 20.281 63.8679 19.8411C65.4979 19.4013 67.2184 19.1814 69.0295 19.1814V15.999C69.0295 14.6019 68.5767 13.4506 67.6712 12.5451C66.7656 11.6136 65.5755 11.1479 64.1008 11.1479C62.9365 11.1479 61.9145 11.4325 61.0349 12.0017C60.1552 12.5709 59.4696 13.3471 58.978 14.3303H58.5899C59.0039 12.752 59.8318 11.4972 61.0737 10.5658C62.3156 9.6344 63.7903 9.16869 65.4979 9.16869C67.6453 9.16869 69.3399 9.80257 70.5818 11.0703C71.8496 12.3381 72.4835 13.981 72.4835 15.999V26.8267C72.4835 27.2924 72.587 27.6417 72.7939 27.8745C73.0268 28.1074 73.3114 28.2238 73.6477 28.2238C73.8547 28.2238 74.0229 28.198 74.1522 28.1462C74.3075 28.0945 74.411 28.0427 74.4627 27.991L74.6568 28.185C74.4498 28.5472 74.1005 28.8448 73.6089 29.0776C73.1432 29.3105 72.6258 29.4269 72.0566 29.4269C71.1769 29.4269 70.4525 29.207 69.8833 28.7671C69.3399 28.3273 69.0554 27.6805 69.0295 26.8267L68.9907 25.9729L69.3788 26.361H68.8354C68.2662 27.3442 67.503 28.1074 66.5457 28.6507C65.6143 29.1682 64.5147 29.4269 63.247 29.4269ZM65.1486 27.6029C65.8989 27.6029 66.5716 27.4088 67.1667 27.0207C67.7617 26.6068 68.2145 26.0893 68.525 25.4684C68.8613 24.8216 69.0295 24.1618 69.0295 23.4891V19.9964C66.8562 20.0481 65.1357 20.475 63.8679 21.277C62.626 22.0532 62.0051 23.1399 62.0051 24.537C62.0051 25.546 62.3156 26.3093 62.9365 26.8267C63.5574 27.3442 64.2948 27.6029 65.1486 27.6029ZM73.7796 13.1272C73.2104 11.7559 72.4989 10.6434 71.6451 9.78963V9.59559H77.8157V9.78963C77.4794 10.2295 77.2724 10.7599 77.1948 11.3808C77.1431 11.9759 77.2595 12.6097 77.5441 13.2824L82.4728 25.1191L87.3239 13.4765C87.6344 12.7003 87.7249 11.9888 87.5956 11.342C87.4662 10.6693 87.1945 10.1518 86.7806 9.78963V9.59559H90.9331V9.78963C89.7947 10.6176 88.9409 11.7171 88.3717 13.0884L81.6578 29.1552H80.5712L73.7796 13.1272ZM93.6876 29.4269C92.1612 29.4269 90.9581 29.0517 90.0784 28.3014C89.2246 27.5511 88.7977 26.5809 88.7977 25.3908C88.7977 23.9937 89.3152 22.8294 90.3501 21.898C91.385 20.9666 92.7045 20.281 94.3086 19.8411C95.9385 19.4013 97.6591 19.1814 99.4701 19.1814V15.999C99.4701 14.6019 99.0174 13.4506 98.1118 12.5451C97.2063 11.6136 96.0162 11.1479 94.5414 11.1479C93.3772 11.1479 92.3552 11.4325 91.4755 12.0017C90.5959 12.5709 89.9102 13.3471 89.4187 14.3303H89.0306C89.4445 12.752 90.2725 11.4972 91.5143 10.5658C92.7562 9.6344 94.231 9.16869 95.9385 9.16869C98.086 9.16869 99.7806 9.80257 101.023 11.0703C102.29 12.3381 102.924 13.981 102.924 15.999V26.8267C102.924 27.2924 103.028 27.6417 103.235 27.8745C103.467 28.1074 103.752 28.2238 104.088 28.2238C104.295 28.2238 104.464 28.198 104.593 28.1462C104.748 28.0945 104.852 28.0427 104.903 27.991L105.097 28.185C104.89 28.5472 104.541 28.8448 104.05 29.0776C103.584 29.3105 103.066 29.4269 102.497 29.4269C101.618 29.4269 100.893 29.207 100.324 28.7671C99.7806 28.3273 99.496 27.6805 99.4701 26.8267L99.4313 25.9729L99.8194 26.361H99.2761C98.7069 27.3442 97.9437 28.1074 96.9864 28.6507C96.055 29.1682 94.9554 29.4269 93.6876 29.4269ZM95.5893 27.6029C96.3396 27.6029 97.0123 27.4088 97.6073 27.0207C98.2024 26.6068 98.6552 26.0893 98.9656 25.4684C99.302 24.8216 99.4701 24.1618 99.4701 23.4891V19.9964C97.2969 20.0481 95.5763 20.475 94.3086 21.277C93.0667 22.0532 92.4458 23.1399 92.4458 24.537C92.4458 25.546 92.7562 26.3093 93.3772 26.8267C93.9981 27.3442 94.7355 27.6029 95.5893 27.6029ZM111.08 29.4269C109.942 29.4269 108.817 29.3105 107.704 29.0776C106.617 28.8448 105.608 28.4567 104.677 27.9134V22.5189H105.065C105.375 23.7349 105.88 24.7957 106.579 25.7013C107.277 26.5809 108.079 27.2665 108.985 27.7581C109.89 28.2238 110.809 28.4567 111.74 28.4567C112.904 28.4567 113.849 28.1074 114.573 27.4088C115.323 26.7103 115.699 25.8435 115.699 24.8086C115.699 23.6703 115.285 22.8165 114.457 22.2473C113.655 21.6522 112.452 21.1347 110.847 20.6949C109.528 20.3327 108.428 19.9446 107.549 19.5306C106.695 19.1167 105.983 18.5346 105.414 17.7843C104.845 17.0081 104.56 16.0249 104.56 14.8348C104.56 13.6964 104.858 12.7003 105.453 11.8465C106.048 10.9927 106.863 10.333 107.898 9.86725C108.933 9.40154 110.097 9.16869 111.391 9.16869C112.296 9.16869 113.228 9.29805 114.185 9.55678C115.168 9.8155 116.125 10.1907 117.057 10.6822V15.5721H116.669C116.41 14.589 115.97 13.6835 115.349 12.8555C114.754 12.0276 114.03 11.3679 113.176 10.8763C112.348 10.3847 111.468 10.1389 110.537 10.1389C109.373 10.1389 108.467 10.4364 107.82 11.0315C107.174 11.6266 106.85 12.3769 106.85 13.2824C106.85 14.0069 107.044 14.6149 107.432 15.1064C107.846 15.598 108.377 15.999 109.023 16.3095C109.696 16.5941 110.563 16.8916 111.624 17.2021C112.943 17.5902 114.043 18.0042 114.922 18.444C115.828 18.8838 116.565 19.5048 117.135 20.3068C117.73 21.1089 118.027 22.1567 118.027 23.4503C118.027 24.7957 117.691 25.9212 117.018 26.8267C116.371 27.7064 115.517 28.3661 114.457 28.806C113.396 29.2199 112.27 29.4269 111.08 29.4269ZM122.916 29.4269C121.389 29.4269 120.186 29.0517 119.306 28.3014C118.453 27.5511 118.026 26.5809 118.026 25.3908C118.026 23.9937 118.543 22.8294 119.578 21.898C120.613 20.9666 121.932 20.281 123.536 19.8411C125.166 19.4013 126.887 19.1814 128.698 19.1814V15.999C128.698 14.6019 128.245 13.4506 127.34 12.5451C126.434 11.6136 125.244 11.1479 123.769 11.1479C122.605 11.1479 121.583 11.4325 120.703 12.0017C119.824 12.5709 119.138 13.3471 118.647 14.3303H118.258C118.672 12.752 119.5 11.4972 120.742 10.5658C121.984 9.6344 123.459 9.16869 125.166 9.16869C127.314 9.16869 129.009 9.80257 130.25 11.0703C131.518 12.3381 132.152 13.981 132.152 15.999V26.8267C132.152 27.2924 132.256 27.6417 132.463 27.8745C132.695 28.1074 132.98 28.2238 133.316 28.2238C133.523 28.2238 133.691 28.198 133.821 28.1462C133.976 28.0945 134.08 28.0427 134.131 27.991L134.325 28.185C134.118 28.5472 133.769 28.8448 133.277 29.0776C132.812 29.3105 132.294 29.4269 131.725 29.4269C130.845 29.4269 130.121 29.207 129.552 28.7671C129.009 28.3273 128.724 27.6805 128.698 26.8267L128.659 25.9729L129.047 26.361H128.504C127.935 27.3442 127.172 28.1074 126.214 28.6507C125.283 29.1682 124.183 29.4269 122.916 29.4269ZM124.817 27.6029C125.567 27.6029 126.24 27.4088 126.835 27.0207C127.43 26.6068 127.883 26.0893 128.194 25.4684C128.53 24.8216 128.698 24.1618 128.698 23.4891V19.9964C126.525 20.0481 124.804 20.475 123.536 21.277C122.295 22.0532 121.674 23.1399 121.674 24.537C121.674 25.546 121.984 26.3093 122.605 26.8267C123.226 27.3442 123.963 27.6029 124.817 27.6029ZM134.138 28.806C134.448 28.3661 134.694 27.8357 134.875 27.2148C135.056 26.5939 135.147 25.9212 135.147 25.1967V5.59828C135.147 4.74448 135.043 4.03299 134.836 3.46379C134.629 2.8946 134.319 2.40302 133.905 1.98906V1.79501L138.407 0.0874246H138.601V25.1967C138.601 25.9212 138.691 26.5939 138.872 27.2148C139.053 27.8357 139.299 28.3661 139.61 28.806V29H134.138V28.806Z" fill="#3572ef"/>
<path d="M0.259941 28.806C0.596284 28.3402 0.880882 27.7581 1.11374 27.0596C1.34659 26.361 1.46301 25.6495 1.46301 24.9251V5.90875C1.46301 5.18432 1.34659 4.47282 1.11374 3.77426C0.880882 3.0757 0.596284 2.49357 0.259941 2.02787V1.83382H6.35293V2.02787C6.01658 2.49357 5.73199 3.0757 5.49913 3.77426C5.26628 4.47282 5.14985 5.18432 5.14985 5.90875V24.9251C5.14985 25.6495 5.26628 26.361 5.49913 27.0596C5.73199 27.7581 6.01658 28.3402 6.35293 28.806V29H0.259941V28.806ZM20.0136 29.2329C19.0305 29.2329 18.1637 28.9871 17.4134 28.4955C16.689 28.0039 15.8223 27.1501 14.8133 25.9341L6.12007 15.4945V15.3005L14.9685 5.63709C15.6153 4.93853 15.9646 4.27878 16.0163 3.65784C16.0681 3.01102 15.874 2.4677 15.4342 2.02787V1.83382H20.7122V2.02787C19.8843 2.41596 19.0952 2.93341 18.3449 3.58022C17.5945 4.22703 16.7925 5.00321 15.9387 5.90875L9.03074 13.3212L18.9658 25.2744C19.7937 26.2834 20.4793 27.0596 21.0227 27.6029C21.566 28.1203 22.0188 28.4308 22.381 28.5343V28.7283C21.5531 29.0647 20.7639 29.2329 20.0136 29.2329ZM27.685 29.4269C26.4432 29.4269 25.3436 29.1423 24.3863 28.5731C23.4549 27.978 22.7175 27.163 22.1742 26.1281C21.6567 25.0674 21.398 23.8772 21.398 22.5577V14.6795C21.398 13.8257 21.2945 13.1272 21.0875 12.5839C20.9064 12.0147 20.6089 11.5231 20.1949 11.1091V10.9151L24.658 9.16869H24.852V22.5189C24.852 23.8643 25.253 24.9768 26.0551 25.8565C26.8571 26.7362 27.905 27.176 29.1986 27.176C30.0783 27.176 30.8932 26.9819 31.6435 26.5939C32.3938 26.2058 32.9889 25.6624 33.4288 24.9639C33.8686 24.2395 34.0885 23.4245 34.0885 22.5189V14.6795C34.0885 13.8257 33.985 13.1143 33.778 12.5451C33.5969 11.9759 33.2994 11.4972 32.8854 11.1091V10.9151L37.3484 9.16869H37.5425V24.6146C37.5425 25.4425 37.646 26.1411 37.853 26.7103C38.0599 27.2536 38.3704 27.6934 38.7844 28.0298V28.2238L34.2825 29.4269H34.0885V25.5072H33.8945C33.377 26.6715 32.575 27.6158 31.4883 28.3402C30.4017 29.0647 29.1339 29.4269 27.685 29.4269ZM47.1113 29.4269C45.4813 29.4269 44.0713 29.0129 42.8811 28.185C41.691 27.3571 40.7725 26.2187 40.1257 24.7698C39.5048 23.321 39.1943 21.691 39.1943 19.8799C39.1943 17.836 39.6082 15.999 40.4362 14.3691C41.29 12.7391 42.4284 11.4713 43.8513 10.5658C45.2743 9.6344 46.8267 9.16869 48.5084 9.16869C49.5433 9.16869 50.4618 9.31099 51.2638 9.59559C52.0659 9.88019 52.7774 10.2941 53.3983 10.8375V5.59828C53.3983 4.74448 53.2948 4.03299 53.0878 3.46379C52.9067 2.8946 52.6092 2.40302 52.1952 1.98906V1.79501L56.6583 0.0874246H56.8523V24.5758C56.8523 25.4296 56.9558 26.1411 57.1628 26.7103C57.3698 27.2536 57.6802 27.6805 58.0942 27.991V28.185L53.5924 29.4269H53.3983V25.6236H53.2043C52.6609 26.7362 51.8718 27.6546 50.8369 28.3791C49.802 29.0776 48.5601 29.4269 47.1113 29.4269ZM48.4696 27.2536C49.401 27.2536 50.2289 27.0596 50.9534 26.6715C51.6778 26.2575 52.247 25.7012 52.6609 25.0027C53.1008 24.2783 53.3466 23.4762 53.3983 22.5965V15.3393C53.3466 14.5114 53.1267 13.6964 52.7386 12.8943C52.3505 12.0664 51.7942 11.3937 51.0698 10.8763C50.3454 10.333 49.4657 10.0613 48.4308 10.0613C47.2665 10.0613 46.2446 10.4235 45.3649 11.1479C44.5111 11.8724 43.8513 12.9073 43.3856 14.2526C42.9458 15.5721 42.7259 17.0986 42.7259 18.8321C42.7259 20.5397 42.9717 22.0273 43.4633 23.2951C43.9548 24.5629 44.6275 25.546 45.4813 26.2446C46.361 26.9173 47.3571 27.2536 48.4696 27.2536ZM63.247 29.4269C61.7205 29.4269 60.5174 29.0517 59.6377 28.3014C58.7839 27.5511 58.3571 26.5809 58.3571 25.3908C58.3571 23.9937 58.8745 22.8294 59.9094 21.898C60.9443 20.9666 62.2638 20.281 63.8679 19.8411C65.4979 19.4013 67.2184 19.1814 69.0295 19.1814V15.999C69.0295 14.6019 68.5767 13.4506 67.6712 12.5451C66.7656 11.6136 65.5755 11.1479 64.1008 11.1479C62.9365 11.1479 61.9145 11.4325 61.0349 12.0017C60.1552 12.5709 59.4696 13.3471 58.978 14.3303H58.5899C59.0039 12.752 59.8318 11.4972 61.0737 10.5658C62.3156 9.6344 63.7903 9.16869 65.4979 9.16869C67.6453 9.16869 69.3399 9.80257 70.5818 11.0703C71.8496 12.3381 72.4835 13.981 72.4835 15.999V26.8267C72.4835 27.2924 72.587 27.6417 72.7939 27.8745C73.0268 28.1074 73.3114 28.2238 73.6477 28.2238C73.8547 28.2238 74.0229 28.198 74.1522 28.1462C74.3075 28.0945 74.411 28.0427 74.4627 27.991L74.6568 28.185C74.4498 28.5472 74.1005 28.8448 73.6089 29.0776C73.1432 29.3105 72.6258 29.4269 72.0566 29.4269C71.1769 29.4269 70.4525 29.207 69.8833 28.7671C69.3399 28.3273 69.0554 27.6805 69.0295 26.8267L68.9907 25.9729L69.3788 26.361H68.8354C68.2662 27.3442 67.503 28.1074 66.5457 28.6507C65.6143 29.1682 64.5147 29.4269 63.247 29.4269ZM65.1486 27.6029C65.8989 27.6029 66.5716 27.4088 67.1667 27.0207C67.7617 26.6068 68.2145 26.0893 68.525 25.4684C68.8613 24.8216 69.0295 24.1618 69.0295 23.4891V19.9964C66.8562 20.0481 65.1357 20.475 63.8679 21.277C62.626 22.0532 62.0051 23.1399 62.0051 24.537C62.0051 25.546 62.3156 26.3093 62.9365 26.8267C63.5574 27.3442 64.2948 27.6029 65.1486 27.6029ZM73.7796 13.1272C73.2104 11.7559 72.4989 10.6434 71.6451 9.78963V9.59559H77.8157V9.78963C77.4794 10.2295 77.2724 10.7599 77.1948 11.3808C77.1431 11.9759 77.2595 12.6097 77.5441 13.2824L82.4728 25.1191L87.3239 13.4765C87.6344 12.7003 87.7249 11.9888 87.5956 11.342C87.4662 10.6693 87.1945 10.1518 86.7806 9.78963V9.59559H90.9331V9.78963C89.7947 10.6176 88.9409 11.7171 88.3717 13.0884L81.6578 29.1552H80.5712L73.7796 13.1272ZM93.6876 29.4269C92.1612 29.4269 90.9581 29.0517 90.0784 28.3014C89.2246 27.5511 88.7977 26.5809 88.7977 25.3908C88.7977 23.9937 89.3152 22.8294 90.3501 21.898C91.385 20.9666 92.7045 20.281 94.3086 19.8411C95.9385 19.4013 97.6591 19.1814 99.4701 19.1814V15.999C99.4701 14.6019 99.0174 13.4506 98.1118 12.5451C97.2063 11.6136 96.0162 11.1479 94.5414 11.1479C93.3772 11.1479 92.3552 11.4325 91.4755 12.0017C90.5959 12.5709 89.9102 13.3471 89.4187 14.3303H89.0306C89.4445 12.752 90.2725 11.4972 91.5143 10.5658C92.7562 9.6344 94.231 9.16869 95.9385 9.16869C98.086 9.16869 99.7806 9.80257 101.023 11.0703C102.29 12.3381 102.924 13.981 102.924 15.999V26.8267C102.924 27.2924 103.028 27.6417 103.235 27.8745C103.467 28.1074 103.752 28.2238 104.088 28.2238C104.295 28.2238 104.464 28.198 104.593 28.1462C104.748 28.0945 104.852 28.0427 104.903 27.991L105.097 28.185C104.89 28.5472 104.541 28.8448 104.05 29.0776C103.584 29.3105 103.066 29.4269 102.497 29.4269C101.618 29.4269 100.893 29.207 100.324 28.7671C99.7806 28.3273 99.496 27.6805 99.4701 26.8267L99.4313 25.9729L99.8194 26.361H99.2761C98.7069 27.3442 97.9437 28.1074 96.9864 28.6507C96.055 29.1682 94.9554 29.4269 93.6876 29.4269ZM95.5893 27.6029C96.3396 27.6029 97.0123 27.4088 97.6073 27.0207C98.2024 26.6068 98.6552 26.0893 98.9656 25.4684C99.302 24.8216 99.4701 24.1618 99.4701 23.4891V19.9964C97.2969 20.0481 95.5763 20.475 94.3086 21.277C93.0667 22.0532 92.4458 23.1399 92.4458 24.537C92.4458 25.546 92.7562 26.3093 93.3772 26.8267C93.9981 27.3442 94.7355 27.6029 95.5893 27.6029ZM111.08 29.4269C109.942 29.4269 108.817 29.3105 107.704 29.0776C106.617 28.8448 105.608 28.4567 104.677 27.9134V22.5189H105.065C105.375 23.7349 105.88 24.7957 106.579 25.7013C107.277 26.5809 108.079 27.2665 108.985 27.7581C109.89 28.2238 110.809 28.4567 111.74 28.4567C112.904 28.4567 113.849 28.1074 114.573 27.4088C115.323 26.7103 115.699 25.8435 115.699 24.8086C115.699 23.6703 115.285 22.8165 114.457 22.2473C113.655 21.6522 112.452 21.1347 110.847 20.6949C109.528 20.3327 108.428 19.9446 107.549 19.5306C106.695 19.1167 105.983 18.5346 105.414 17.7843C104.845 17.0081 104.56 16.0249 104.56 14.8348C104.56 13.6964 104.858 12.7003 105.453 11.8465C106.048 10.9927 106.863 10.333 107.898 9.86725C108.933 9.40154 110.097 9.16869 111.391 9.16869C112.296 9.16869 113.228 9.29805 114.185 9.55678C115.168 9.8155 116.125 10.1907 117.057 10.6822V15.5721H116.669C116.41 14.589 115.97 13.6835 115.349 12.8555C114.754 12.0276 114.03 11.3679 113.176 10.8763C112.348 10.3847 111.468 10.1389 110.537 10.1389C109.373 10.1389 108.467 10.4364 107.82 11.0315C107.174 11.6266 106.85 12.3769 106.85 13.2824C106.85 14.0069 107.044 14.6149 107.432 15.1064C107.846 15.598 108.377 15.999 109.023 16.3095C109.696 16.5941 110.563 16.8916 111.624 17.2021C112.943 17.5902 114.043 18.0042 114.922 18.444C115.828 18.8838 116.565 19.5048 117.135 20.3068C117.73 21.1089 118.027 22.1567 118.027 23.4503C118.027 24.7957 117.691 25.9212 117.018 26.8267C116.371 27.7064 115.517 28.3661 114.457 28.806C113.396 29.2199 112.27 29.4269 111.08 29.4269ZM122.916 29.4269C121.389 29.4269 120.186 29.0517 119.306 28.3014C118.453 27.5511 118.026 26.5809 118.026 25.3908C118.026 23.9937 118.543 22.8294 119.578 21.898C120.613 20.9666 121.932 20.281 123.536 19.8411C125.166 19.4013 126.887 19.1814 128.698 19.1814V15.999C128.698 14.6019 128.245 13.4506 127.34 12.5451C126.434 11.6136 125.244 11.1479 123.769 11.1479C122.605 11.1479 121.583 11.4325 120.703 12.0017C119.824 12.5709 119.138 13.3471 118.647 14.3303H118.258C118.672 12.752 119.5 11.4972 120.742 10.5658C121.984 9.6344 123.459 9.16869 125.166 9.16869C127.314 9.16869 129.009 9.80257 130.25 11.0703C131.518 12.3381 132.152 13.981 132.152 15.999V26.8267C132.152 27.2924 132.256 27.6417 132.463 27.8745C132.695 28.1074 132.98 28.2238 133.316 28.2238C133.523 28.2238 133.691 28.198 133.821 28.1462C133.976 28.0945 134.08 28.0427 134.131 27.991L134.325 28.185C134.118 28.5472 133.769 28.8448 133.277 29.0776C132.812 29.3105 132.294 29.4269 131.725 29.4269C130.845 29.4269 130.121 29.207 129.552 28.7671C129.009 28.3273 128.724 27.6805 128.698 26.8267L128.659 25.9729L129.047 26.361H128.504C127.935 27.3442 127.172 28.1074 126.214 28.6507C125.283 29.1682 124.183 29.4269 122.916 29.4269ZM124.817 27.6029C125.567 27.6029 126.24 27.4088 126.835 27.0207C127.43 26.6068 127.883 26.0893 128.194 25.4684C128.53 24.8216 128.698 24.1618 128.698 23.4891V19.9964C126.525 20.0481 124.804 20.475 123.536 21.277C122.295 22.0532 121.674 23.1399 121.674 24.537C121.674 25.546 121.984 26.3093 122.605 26.8267C123.226 27.3442 123.963 27.6029 124.817 27.6029ZM134.138 28.806C134.448 28.3661 134.694 27.8357 134.875 27.2148C135.056 26.5939 135.147 25.9212 135.147 25.1967V5.59828C135.147 4.74448 135.043 4.03299 134.836 3.46379C134.629 2.8946 134.319 2.40302 133.905 1.98906V1.79501L138.407 0.0874246H138.601V25.1967C138.601 25.9212 138.691 26.5939 138.872 27.2148C139.053 27.8357 139.299 28.3661 139.61 28.806V29H134.138V28.806Z" fill="#3572ef"/>
</svg>
