<svg width="208" height="51" viewBox="0 0 208 51" fill="none" xmlns="http://www.w3.org/2000/svg">
<path d="M1.69117 40.8201H12.8832V43.405H8.60854V50.5824H5.98023V43.405H1.69117V40.8201Z" fill="black"/>
<path d="M21.496 40.8201H30.3774V43.405H22.9546C22.7957 43.405 22.7235 43.4917 22.7235 43.6505V44.7625H30.3341V46.6399H22.7235V47.8241C22.7235 47.9974 22.7957 48.084 22.9546 48.084H30.3774V50.5824H21.4816C20.5718 50.5824 20.1097 50.1347 20.1097 49.2249V42.1342C20.1097 41.2533 20.5718 40.8201 21.496 40.8201Z" fill="black"/>
<path d="M47.8935 48.0118V50.5824H42.7813C41.0339 50.5824 39.7487 49.9758 38.8533 48.9938C38.0735 48.1418 37.5969 46.9865 37.5969 45.7012C37.5969 44.286 38.2034 43.0007 39.171 42.1053C40.0375 41.3111 41.2072 40.8201 42.7813 40.8201H47.8935V43.405H42.7813C41.9004 43.405 41.3516 43.6505 40.9328 44.0405C40.4852 44.4593 40.2108 45.0658 40.2108 45.7156C40.2108 46.3077 40.4418 46.8565 40.8173 47.2609C41.2361 47.723 41.8571 48.0118 42.7813 48.0118H47.8935Z" fill="black"/>
<path d="M63.7963 40.8201H66.4246V50.5824H63.7963V46.8132H57.9765V50.5824H55.3482V40.8201H57.9765V44.3582H63.7963V40.8201Z" fill="black"/>
<path d="M86.2253 40.8201V48.6905C86.2253 50.1636 85.3444 50.7845 84.3912 50.7845C83.5681 50.7845 82.9471 50.5535 82.485 50.0191L77.1273 43.8238C77.0551 43.7372 76.9829 43.6939 76.8962 43.6939C76.7662 43.6939 76.6507 43.795 76.6507 43.9683V50.5824H74.0802V42.8852C74.0802 41.2244 75.0333 40.6034 76.3475 40.6034C77.2717 40.6034 77.8493 40.8489 78.4559 41.571L83.2215 47.2753C83.2937 47.3764 83.3803 47.3908 83.467 47.3908C83.5825 47.3908 83.6692 47.3042 83.6692 47.1309V40.8201H86.2253Z" fill="black"/>
<path d="M100.904 50.5824H98.8535C97.1061 50.5824 95.8208 49.9758 94.9255 48.9938C94.1456 48.1418 93.6691 46.9865 93.6691 45.7012C93.6691 44.286 94.2756 43.0007 95.2432 42.1053C96.1096 41.3111 97.2794 40.8201 98.8535 40.8201H100.904C102.478 40.8201 103.648 41.3111 104.514 42.1053C105.482 43.0007 106.089 44.286 106.089 45.7012C106.089 46.9865 105.612 48.1418 104.832 48.9938C103.937 49.9758 102.652 50.5824 100.904 50.5824ZM100.904 43.405H98.8535C97.9726 43.405 97.4238 43.6505 97.005 44.0405C96.5573 44.4593 96.2829 45.0658 96.2829 45.7156C96.2829 46.3077 96.514 46.8565 96.8895 47.2609C97.3083 47.723 97.9292 48.0118 98.8535 48.0118H100.904C101.828 48.0118 102.449 47.723 102.868 47.2609C103.244 46.8565 103.475 46.3077 103.475 45.7156C103.475 45.0658 103.2 44.4593 102.753 44.0405C102.334 43.6505 101.785 43.405 100.904 43.405Z" fill="black"/>
<path d="M123.717 50.5824H116.627C114.229 50.5824 113.449 49.5281 113.449 47.4053V40.8201H116.078V47.1598C116.078 47.8674 116.265 48.084 116.944 48.084H123.717V50.5824Z" fill="black"/>
<path d="M137.552 50.5824H135.502C133.754 50.5824 132.469 49.9758 131.574 48.9938C130.794 48.1418 130.317 46.9865 130.317 45.7012C130.317 44.286 130.924 43.0007 131.891 42.1053C132.758 41.3111 133.927 40.8201 135.502 40.8201H137.552C139.126 40.8201 140.296 41.3111 141.163 42.1053C142.13 43.0007 142.737 44.286 142.737 45.7012C142.737 46.9865 142.26 48.1418 141.48 48.9938C140.585 49.9758 139.3 50.5824 137.552 50.5824ZM137.552 43.405H135.502C134.621 43.405 134.072 43.6505 133.653 44.0405C133.205 44.4593 132.931 45.0658 132.931 45.7156C132.931 46.3077 133.162 46.8565 133.538 47.2609C133.956 47.723 134.577 48.0118 135.502 48.0118H137.552C138.476 48.0118 139.097 47.723 139.516 47.2609C139.892 46.8565 140.123 46.3077 140.123 45.7156C140.123 45.0658 139.848 44.4593 139.401 44.0405C138.982 43.6505 138.433 43.405 137.552 43.405Z" fill="black"/>
<path d="M159.83 50.5824H155.165C153.418 50.5824 152.133 49.9758 151.237 48.9938C150.458 48.1418 149.981 46.9865 149.981 45.7012C149.981 44.286 150.588 43.0007 151.555 42.1053C152.422 41.3111 153.591 40.8201 155.165 40.8201H160.436V43.405H155.165C154.284 43.405 153.736 43.6505 153.317 44.0405C152.869 44.4593 152.595 45.0658 152.595 45.7156C152.595 46.3077 152.826 46.8565 153.201 47.2609C153.62 47.723 154.241 48.0551 155.165 48.0551H157.664C157.794 48.0551 157.851 47.9974 157.851 47.853V45.2391H160.451V49.9614C160.451 50.3802 160.249 50.5824 159.83 50.5824Z" fill="black"/>
<path d="M168.071 40.8201H170.699V50.5824H168.071V40.8201Z" fill="black"/>
<path d="M179.742 40.8201H188.623V43.405H181.2C181.042 43.405 180.969 43.4917 180.969 43.6505V44.7625H188.58V46.6399H180.969V47.8241C180.969 47.9974 181.042 48.084 181.2 48.084H188.623V50.5824H179.727C178.818 50.5824 178.355 50.1347 178.355 49.2249V42.1342C178.355 41.2533 178.818 40.8201 179.742 40.8201Z" fill="black"/>
<path d="M206.269 40.8201V43.405H199.251C198.933 43.405 198.76 43.4773 198.644 43.5928C198.514 43.7228 198.442 43.896 198.442 44.0982C198.442 44.3148 198.543 44.5026 198.688 44.6181C198.803 44.7192 198.948 44.7625 199.251 44.7625H203.54C204.637 44.7625 205.374 45.1091 205.894 45.6434C206.414 46.1778 206.731 46.8998 206.731 47.6652C206.731 48.3728 206.457 49.0516 206.009 49.5715C205.475 50.1924 204.695 50.5824 203.54 50.5824H195.973V48.084H203.078C203.482 48.084 203.684 47.9974 203.814 47.8385C203.915 47.723 203.973 47.5641 203.973 47.3908C203.973 47.1887 203.901 47.0009 203.771 46.8709C203.641 46.7265 203.453 46.6543 203.078 46.6543H199.106C197.807 46.6543 197.056 46.3077 196.536 45.7734C196.016 45.2391 195.713 44.5315 195.713 43.7372C195.713 42.9574 196.03 42.2353 196.55 41.701C197.07 41.1666 197.807 40.8201 199.106 40.8201H206.269Z" fill="black"/>
<path d="M16.3996 2.98867L20.7256 10.6299C23.111 14.7942 24.1621 16.8156 25.092 18.7158C25.9815 16.8156 27.0326 14.8346 29.418 10.6703L33.744 2.98867C34.7143 1.2502 36.1698 0.118164 38.353 0.118164C40.4553 0.118164 42.3151 1.33105 43.0428 3.8377L49.8754 27.6104H41.5469L38.9998 18.1902C38.1508 15.1176 37.5848 12.9344 37.1401 10.7512C36.2506 12.6514 35.2399 14.7133 33.3801 18.2307L29.7414 25.0229C28.3264 27.6912 26.9518 28.0551 24.9303 28.0551C22.9088 28.0551 21.5342 27.6912 20.1192 25.0229L16.4805 18.1902C14.4994 14.4707 13.5291 12.5705 12.6801 10.7512C12.2758 12.894 11.6693 15.158 10.8608 18.1902L8.31368 27.6104H0.106445L7.10079 3.8377C7.82852 1.33105 9.72872 0.118164 11.8311 0.118164C13.9738 0.118164 15.4293 1.20976 16.3996 2.98867Z" fill="#181818"/>
<path d="M95.8355 27.6104H64.3812L69.4349 20.6565H76.2271C77.8443 20.6565 79.7445 20.6565 81.0382 20.7373C80.3105 19.767 79.1784 18.1094 78.289 16.8156L73.4374 9.65958L60.7425 27.6104H50.8372L68.1816 3.15039C69.3136 1.57363 70.9712 0.118164 73.5991 0.118164C76.1058 0.118164 77.7634 1.45234 78.9359 3.15039L95.8355 27.6104Z" fill="#16A099"/>
<path d="M107.187 20.6565H128.129L122.712 27.6104H98.8178V0.56289H107.187V20.6565Z" fill="#181818"/>
<path d="M141.535 16.7348L146.548 10.7107H163.852V27.6104H145.295C135.915 27.6104 129.002 21.6672 129.002 13.8238C129.002 5.89961 135.915 0.56289 145.295 0.56289H164.661L159.243 7.59766H145.295C140.767 7.59766 137.33 10.3469 137.33 14.1877C137.33 18.1094 140.646 20.6565 145.295 20.6565H155.524V16.7348H141.535Z" fill="#181818"/>
<path d="M187.583 0.118164C200.722 0.118164 207.353 4.40371 207.353 14.0664C207.353 23.7291 200.722 28.0551 187.583 28.0551C174.403 28.0551 167.813 23.7291 167.813 14.0664C167.813 4.40371 174.403 0.118164 187.583 0.118164ZM187.583 21.0203C195.992 21.0203 199.024 19.8883 199.024 14.0664C199.024 8.24454 195.992 7.15293 187.583 7.15293C179.173 7.15293 176.141 8.24454 176.141 14.0664C176.141 19.8883 179.173 21.0203 187.583 21.0203Z" fill="#181818"/>
</svg>
