<svg width="144" height="35" viewBox="0 0 144 35" fill="none" xmlns="http://www.w3.org/2000/svg">
<path d="M1.09472 28.1166H8.82607V29.9023H5.87319V34.8603H4.05757V29.9023H1.09472V28.1166Z" fill="white"/>
<path d="M14.7758 28.1166H20.911V29.9023H15.7833C15.6736 29.9023 15.6237 29.9622 15.6237 30.0719V30.84H20.881V32.1369H15.6237V32.9549C15.6237 33.0746 15.6736 33.1345 15.7833 33.1345H20.911V34.8603H14.7658C14.1373 34.8603 13.8181 34.5511 13.8181 33.9226V29.0244C13.8181 28.4159 14.1373 28.1166 14.7758 28.1166Z" fill="white"/>
<path d="M33.011 33.0846V34.8603H29.4795C28.2724 34.8603 27.3846 34.4413 26.7661 33.763C26.2274 33.1744 25.8982 32.3763 25.8982 31.4885C25.8982 30.5108 26.3172 29.623 26.9855 29.0045C27.5841 28.4558 28.3921 28.1166 29.4795 28.1166H33.011V29.9023H29.4795C28.871 29.9023 28.4919 30.0719 28.2026 30.3412C27.8933 30.6305 27.7038 31.0495 27.7038 31.4984C27.7038 31.9075 27.8634 32.2865 28.1228 32.5659C28.4121 32.8851 28.8411 33.0846 29.4795 33.0846H33.011Z" fill="white"/>
<path d="M43.9965 28.1166H45.8122V34.8603H43.9965V32.2566H39.9762V34.8603H38.1606V28.1166H39.9762V30.5607H43.9965V28.1166Z" fill="white"/>
<path d="M59.4903 28.1166V33.5535C59.4903 34.571 58.8818 35 58.2234 35C57.6548 35 57.2258 34.8404 56.9066 34.4713L53.2055 30.1916C53.1556 30.1317 53.1057 30.1018 53.0459 30.1018C52.9561 30.1018 52.8763 30.1716 52.8763 30.2914V34.8603H51.1006V29.5432C51.1006 28.3959 51.759 27.967 52.6668 27.967C53.3052 27.967 53.7043 28.1366 54.1233 28.6354L57.4153 32.5758C57.4652 32.6457 57.5251 32.6557 57.5849 32.6557C57.6647 32.6557 57.7246 32.5958 57.7246 32.4761V28.1166H59.4903Z" fill="white"/>
<path d="M69.6304 34.8603H68.2138C67.0067 34.8603 66.1189 34.4413 65.5004 33.763C64.9617 33.1744 64.6324 32.3763 64.6324 31.4885C64.6324 30.5108 65.0514 29.623 65.7198 29.0045C66.3184 28.4558 67.1264 28.1166 68.2138 28.1166H69.6304C70.7178 28.1166 71.5258 28.4558 72.1244 29.0045C72.7928 29.623 73.2118 30.5108 73.2118 31.4885C73.2118 32.3763 72.8825 33.1744 72.3438 33.763C71.7253 34.4413 70.8375 34.8603 69.6304 34.8603ZM69.6304 29.9023H68.2138C67.6053 29.9023 67.2262 30.0719 66.9369 30.3412C66.6276 30.6305 66.4381 31.0495 66.4381 31.4984C66.4381 31.9075 66.5977 32.2865 66.8571 32.5659C67.1464 32.8851 67.5753 33.0846 68.2138 33.0846H69.6304C70.2689 33.0846 70.6978 32.8851 70.9871 32.5659C71.2465 32.2865 71.4061 31.9075 71.4061 31.4984C71.4061 31.0495 71.2166 30.6305 70.9073 30.3412C70.618 30.0719 70.2389 29.9023 69.6304 29.9023Z" fill="white"/>
<path d="M85.3895 34.8603H80.4913C78.8353 34.8603 78.2966 34.1321 78.2966 32.6656V28.1166H80.1122V32.496C80.1122 32.9849 80.2419 33.1345 80.7108 33.1345H85.3895V34.8603Z" fill="white"/>
<path d="M94.9467 34.8603H93.5301C92.323 34.8603 91.4351 34.4413 90.8166 33.763C90.2779 33.1744 89.9487 32.3763 89.9487 31.4885C89.9487 30.5108 90.3677 29.623 91.0361 29.0045C91.6346 28.4558 92.4427 28.1166 93.5301 28.1166H94.9467C96.034 28.1166 96.8421 28.4558 97.4406 29.0045C98.109 29.623 98.528 30.5108 98.528 31.4885C98.528 32.3763 98.1988 33.1744 97.6601 33.763C97.0416 34.4413 96.1537 34.8603 94.9467 34.8603ZM94.9467 29.9023H93.5301C92.9215 29.9023 92.5425 30.0719 92.2532 30.3412C91.9439 30.6305 91.7544 31.0495 91.7544 31.4984C91.7544 31.9075 91.914 32.2865 92.1733 32.5659C92.4626 32.8851 92.8916 33.0846 93.5301 33.0846H94.9467C95.5851 33.0846 96.0141 32.8851 96.3034 32.5659C96.5628 32.2865 96.7224 31.9075 96.7224 31.4984C96.7224 31.0495 96.5328 30.6305 96.2236 30.3412C95.9343 30.0719 95.5552 29.9023 94.9467 29.9023Z" fill="white"/>
<path d="M110.336 34.8603H107.114C105.907 34.8603 105.019 34.4413 104.4 33.763C103.862 33.1744 103.532 32.3763 103.532 31.4885C103.532 30.5108 103.951 29.623 104.62 29.0045C105.218 28.4558 106.026 28.1166 107.114 28.1166H110.755V29.9023H107.114C106.505 29.9023 106.126 30.0719 105.837 30.3412C105.528 30.6305 105.338 31.0495 105.338 31.4984C105.338 31.9075 105.498 32.2865 105.757 32.5659C106.046 32.8851 106.475 33.1145 107.114 33.1145H108.84C108.929 33.1145 108.969 33.0746 108.969 32.9749V31.1692H110.765V34.4314C110.765 34.7207 110.625 34.8603 110.336 34.8603Z" fill="white"/>
<path d="M116.029 28.1166H117.844V34.8603H116.029V28.1166Z" fill="white"/>
<path d="M124.091 28.1166H130.226V29.9023H125.099C124.989 29.9023 124.939 29.9622 124.939 30.0719V30.84H130.196V32.1369H124.939V32.9549C124.939 33.0746 124.989 33.1345 125.099 33.1345H130.226V34.8603H124.081C123.452 34.8603 123.133 34.5511 123.133 33.9226V29.0244C123.133 28.4159 123.453 28.1166 124.091 28.1166Z" fill="white"/>
<path d="M142.416 28.1166V29.9023H137.568C137.348 29.9023 137.228 29.9522 137.149 30.032C137.059 30.1218 137.009 30.2415 137.009 30.3811C137.009 30.5308 137.079 30.6605 137.179 30.7403C137.258 30.8101 137.358 30.84 137.568 30.84H140.531C141.289 30.84 141.797 31.0795 142.157 31.4486C142.516 31.8177 142.735 32.3165 142.735 32.8452C142.735 33.334 142.546 33.8029 142.236 34.162C141.867 34.591 141.329 34.8603 140.531 34.8603H135.303V33.1345H140.211C140.491 33.1345 140.63 33.0746 140.72 32.9649C140.79 32.8851 140.83 32.7754 140.83 32.6557C140.83 32.516 140.78 32.3863 140.69 32.2965C140.6 32.1968 140.471 32.1469 140.211 32.1469H137.468C136.57 32.1469 136.051 31.9075 135.692 31.5384C135.333 31.1692 135.124 30.6804 135.124 30.1317C135.124 29.593 135.343 29.0942 135.702 28.7251C136.061 28.356 136.57 28.1166 137.468 28.1166H142.416Z" fill="white"/>
<path d="M11.2552 1.98293L14.2436 7.26143C15.8914 10.1381 16.6175 11.5345 17.2599 12.8471C17.8743 11.5345 18.6004 10.166 20.2482 7.28936L23.2366 1.98293C23.9069 0.782 24.9123 0 26.4204 0C27.8727 0 29.1574 0.837857 29.6602 2.56943L34.3801 18.9914H28.6268L26.8673 12.4841C26.2808 10.3615 25.8898 8.85336 25.5826 7.34522C24.9682 8.65786 24.2699 10.0822 22.9852 12.512L20.4717 17.204C19.4942 19.0473 18.5446 19.2987 17.1481 19.2987C15.7517 19.2987 14.8021 19.0473 13.8246 17.204L11.3111 12.4841C9.94258 9.91465 9.27229 8.602 8.68579 7.34522C8.4065 8.82543 7.98758 10.3894 7.429 12.4841L5.6695 18.9914H0L4.83164 2.56943C5.33436 0.837857 6.647 0 8.09929 0C9.5795 0 10.5849 0.75407 11.2552 1.98293Z" fill="white"/>
<path d="M66.129 18.9914H44.4006L47.8916 14.1877H52.5836C53.7008 14.1877 55.0134 14.1877 55.9071 14.2436C55.4044 13.5733 54.6224 12.4282 54.008 11.5345L50.6566 6.59115L41.887 18.9914H35.0445L47.0258 2.09464C47.8078 1.00543 48.9529 0 50.7683 0C52.4998 0 53.6449 0.921643 54.4548 2.09464L66.129 18.9914Z" fill="#16A099"/>
<path d="M73.9704 14.1877H88.4374L84.695 18.9914H68.1892V0.307214H73.9704V14.1877Z" fill="white"/>
<path d="M97.6979 11.4786L101.161 7.31729H113.114V18.9914H100.295C93.8158 18.9914 89.04 14.8859 89.04 9.46779C89.04 3.99379 93.8158 0.307214 100.295 0.307214H113.673L109.931 5.16679H100.295C97.1672 5.16679 94.7933 7.06593 94.7933 9.71915C94.7933 12.4282 97.0835 14.1877 100.295 14.1877H107.361V11.4786H97.6979Z" fill="white"/>
<path d="M129.507 0C138.584 0 143.165 2.96043 143.165 9.63536C143.165 16.3103 138.584 19.2987 129.507 19.2987C120.403 19.2987 115.85 16.3103 115.85 9.63536C115.85 2.96043 120.403 0 129.507 0ZM129.507 14.4391C135.317 14.4391 137.411 13.6571 137.411 9.63536C137.411 5.61364 135.317 4.85957 129.507 4.85957C123.698 4.85957 121.604 5.61364 121.604 9.63536C121.604 13.6571 123.698 14.4391 129.507 14.4391Z" fill="white"/>
</svg>
