<svg width="139" height="43" viewBox="0 0 139 43" fill="none" xmlns="http://www.w3.org/2000/svg">
<path d="M15.0747 42L0.682658 4.2L5.89066 2.184L18.2107 36.176L30.5867 2.352L35.4027 4.2L21.0667 42H15.0747ZM46.1953 42.672C42.014 42.672 38.6913 41.3467 36.2273 38.696C33.8007 36.008 32.5873 32.256 32.5873 27.44C32.5873 24.528 33.1287 21.9333 34.2113 19.656C35.3313 17.3413 36.8807 15.5307 38.8593 14.224C40.838 12.88 43.134 12.208 45.7473 12.208C48.5473 12.208 50.862 12.824 52.6913 14.056C54.558 15.2507 55.958 16.8747 56.8913 18.928C57.8247 20.9813 58.2913 23.24 58.2913 25.704C58.2913 27.0107 58.2353 28.28 58.1233 29.512H37.7393C38.0753 32.2373 39.0273 34.3653 40.5953 35.896C42.1633 37.4267 44.2353 38.192 46.8113 38.192C48.4913 38.192 50.0033 38.024 51.3473 37.688C52.6913 37.3147 53.9793 36.848 55.2113 36.288L56.3873 40.6C55.0433 41.1973 53.5313 41.6827 51.8513 42.056C50.1713 42.4667 48.286 42.672 46.1953 42.672ZM37.6833 25.424H53.6433C53.6433 22.5867 52.934 20.4027 51.5153 18.872C50.0967 17.3413 48.1367 16.576 45.6353 16.576C43.47 16.576 41.678 17.3413 40.2593 18.872C38.8407 20.3653 37.982 22.5493 37.6833 25.424ZM70.4963 42.672C68.7789 42.672 67.2296 42.3547 65.8483 41.72C64.4669 41.048 63.3656 39.984 62.5443 38.528C61.7603 37.072 61.3683 35.1867 61.3683 32.872V0.559999H66.4083V32.368C66.4083 34.384 66.8189 35.8773 67.6403 36.848C68.4989 37.8187 69.6749 38.304 71.1683 38.304C71.8776 38.304 72.5683 38.2293 73.2403 38.08C73.9496 37.8933 74.5469 37.688 75.0323 37.464L76.2643 41.552C75.5923 41.8507 74.7523 42.112 73.7443 42.336C72.7736 42.56 71.6909 42.672 70.4963 42.672ZM77.6477 42V12.88H82.6877V42H77.6477ZM80.1677 7.896C79.197 7.896 78.357 7.54133 77.6477 6.832C76.9757 6.12267 76.6397 5.30133 76.6397 4.368C76.6397 3.28533 76.957 2.42666 77.5917 1.792C78.2263 1.15733 79.085 0.839999 80.1677 0.839999C81.1383 0.839999 81.9597 1.19467 82.6317 1.904C83.341 2.576 83.6957 3.39733 83.6957 4.368C83.6957 5.41333 83.3783 6.272 82.7437 6.944C82.109 7.57866 81.2503 7.896 80.1677 7.896ZM100.048 42.672C97.285 42.672 94.8583 42.0373 92.7677 40.768C90.7143 39.4613 89.1277 37.6693 88.0077 35.392C86.8877 33.0773 86.3277 30.4267 86.3277 27.44C86.3277 24.64 86.8877 22.0827 88.0077 19.768C89.165 17.4533 90.8077 15.624 92.9357 14.28C95.0637 12.8987 97.565 12.208 100.44 12.208C102.082 12.208 103.52 12.3573 104.752 12.656C106.021 12.9547 107.234 13.384 108.392 13.944L106.88 18.2C105.834 17.6773 104.826 17.304 103.856 17.08C102.922 16.8187 101.877 16.688 100.72 16.688C98.1063 16.688 95.9037 17.64 94.1117 19.544C92.357 21.4107 91.4797 24.0053 91.4797 27.328C91.4797 29.344 91.853 31.1733 92.5997 32.816C93.3463 34.4587 94.373 35.7653 95.6797 36.736C97.0237 37.7067 98.5917 38.192 100.384 38.192C101.802 38.192 103.016 38.0427 104.024 37.744C105.032 37.408 106.114 36.9413 107.272 36.344L108.84 40.6C107.682 41.2347 106.376 41.7387 104.92 42.112C103.501 42.4853 101.877 42.672 100.048 42.672ZM121.939 42.672C119.512 42.672 117.31 42.056 115.331 40.824C113.352 39.592 111.766 37.856 110.571 35.616C109.414 33.3387 108.835 30.6693 108.835 27.608C108.835 24.696 109.414 22.0827 110.571 19.768C111.766 17.4533 113.39 15.624 115.443 14.28C117.534 12.8987 119.923 12.208 122.611 12.208C124.291 12.208 125.803 12.5067 127.147 13.104C128.528 13.664 129.723 14.3733 130.731 15.232V12.88H135.323V34.944C135.323 36.3627 135.659 37.296 136.331 37.744C137.04 38.1547 137.806 38.36 138.627 38.36L137.563 42.28C133.979 42.28 131.814 40.824 131.067 37.912C130.208 39.1067 129.032 40.208 127.539 41.216C126.083 42.1867 124.216 42.672 121.939 42.672ZM123.059 38.192C124.478 38.192 125.822 37.856 127.091 37.184C128.36 36.4747 129.424 35.5973 130.283 34.552V18.928C129.275 18.2187 128.155 17.6587 126.923 17.248C125.728 16.8 124.459 16.576 123.115 16.576C121.323 16.576 119.736 17.0427 118.355 17.976C117.011 18.872 115.947 20.1413 115.163 21.784C114.379 23.3893 113.987 25.2747 113.987 27.44C113.987 29.5307 114.379 31.3973 115.163 33.04C115.947 34.6453 117.03 35.9147 118.411 36.848C119.792 37.744 121.342 38.192 123.059 38.192Z" fill="#910A55"/>
</svg>
