<svg width="2500" height="792" viewBox="0 0 2500 792" fill="none" xmlns="http://www.w3.org/2000/svg">
<g clip-path="url(#clip0_99_6)">
<path d="M435.309 269.334H524.024C522.136 271.977 519.494 274.997 516.474 277.639L402.088 388.25L531.197 516.603C533.839 519.246 535.727 521.888 537.614 524.531H439.839C437.951 521.511 436.064 519.246 433.799 516.981L352.634 432.418L266.939 516.981C264.297 519.623 262.032 522.266 260.144 524.531H170.297C172.184 521.511 174.072 519.623 177.092 516.603L308.843 388.25L194.835 277.639C191.437 274.619 189.55 272.354 187.662 269.334H282.795C284.305 271.599 286.57 274.619 289.212 277.639L356.787 346.346L428.136 277.639C431.156 274.997 433.421 271.977 435.309 269.334ZM579.825 269.334H717.616C758.764 269.334 789.343 282.169 811.993 302.932C837.287 326.338 853.142 359.936 853.142 396.932C853.142 430.531 840.684 460.732 820.299 483.005C796.893 508.676 763.295 524.531 717.616 524.531H579.825C568.877 524.531 563.214 519.246 563.214 508.298V285.189C563.214 274.619 568.877 269.334 579.825 269.334ZM717.616 336.908H636.451C633.054 336.908 631.543 338.418 631.543 342.193V452.049C631.543 455.824 633.054 457.334 636.451 457.334H717.616C741.777 457.334 758.009 449.784 768.957 437.704C778.773 427.133 784.813 412.788 784.813 397.31C784.813 380.322 777.64 364.467 765.937 353.519C754.989 343.326 740.644 336.908 717.616 336.908ZM1081.71 529.816C1063.59 529.816 1046.6 522.643 1038.68 506.411L961.287 345.969C960.532 344.081 958.267 342.949 956.379 342.949C953.359 342.949 950.339 345.214 950.339 349.744V524.531H884.652V337.663C884.652 308.973 893.335 291.23 908.436 279.149C919.761 270.089 934.861 263.671 952.982 263.671C985.448 263.671 1004.32 282.924 1017.54 311.238L1075.3 436.571C1076.81 440.346 1078.69 441.479 1081.71 441.479C1084.73 441.479 1086.62 440.346 1088.13 436.571L1145.89 311.238C1159.1 282.924 1177.98 263.671 1210.44 263.671C1228.56 263.671 1243.66 270.089 1254.99 279.149C1270.09 291.23 1278.77 308.973 1278.77 337.663V524.531H1213.09V349.744C1213.09 345.214 1210.07 342.949 1207.05 342.949C1205.16 342.949 1202.89 344.081 1202.14 345.969L1124.75 506.411C1116.82 522.643 1099.83 529.816 1081.71 529.816ZM1316.03 269.334H1384.74V524.531H1316.03V269.334ZM1739.67 269.334V475.077C1739.67 513.583 1716.64 529.816 1691.72 529.816C1670.2 529.816 1653.97 523.776 1641.89 509.808L1501.83 347.856C1499.95 345.591 1498.06 344.459 1495.79 344.459C1492.4 344.459 1489.38 347.101 1489.38 351.631V524.531H1422.18V323.318C1422.18 279.904 1447.1 263.671 1481.45 263.671C1505.61 263.671 1520.71 270.089 1536.57 288.965L1661.14 438.081C1663.03 440.724 1665.3 441.101 1667.56 441.101C1670.58 441.101 1672.85 438.836 1672.85 434.306V269.334H1739.67ZM1794.2 269.334H1931.99C1973.14 269.334 2003.72 282.169 2026.37 302.932C2051.66 326.338 2067.52 359.936 2067.52 396.932C2067.52 430.531 2055.06 460.732 2034.67 483.005C2011.27 508.676 1977.67 524.531 1931.99 524.531H1794.2C1783.25 524.531 1777.59 519.246 1777.59 508.298V285.189C1777.59 274.619 1783.25 269.334 1794.2 269.334ZM1931.99 336.908H1850.83C1847.43 336.908 1845.92 338.418 1845.92 342.193V452.049C1845.92 455.824 1847.43 457.334 1850.83 457.334H1931.99C1956.15 457.334 1972.38 449.784 1983.33 437.704C1993.15 427.133 1999.19 412.788 1999.19 397.31C1999.19 380.322 1992.01 364.467 1980.31 353.519C1969.36 343.326 1955.02 336.908 1931.99 336.908ZM2367.44 269.334V336.908H2183.97C2175.66 336.908 2171.13 338.796 2168.11 341.816C2164.71 345.214 2162.83 349.744 2162.83 355.029C2162.83 360.691 2165.47 365.599 2169.24 368.619C2172.26 371.262 2176.04 372.394 2183.97 372.394H2296.09C2324.78 372.394 2344.03 381.455 2357.62 395.422C2371.21 409.39 2379.52 428.266 2379.52 448.274C2379.52 466.772 2372.34 484.515 2360.64 498.105C2346.67 514.338 2326.29 524.531 2296.09 524.531H2098.27V459.222H2284.01C2294.58 459.222 2299.86 456.957 2303.26 452.804C2305.9 449.784 2307.41 445.631 2307.41 441.101C2307.41 435.816 2305.52 430.908 2302.13 427.511C2298.73 423.736 2293.82 421.848 2284.01 421.848H2180.19C2146.22 421.848 2126.58 412.788 2112.99 398.82C2099.4 384.852 2091.48 366.354 2091.48 345.591C2091.48 325.206 2099.78 306.33 2113.37 292.362C2126.96 278.394 2146.22 269.334 2180.19 269.334H2367.44Z" fill="black"/>
<path d="M938.12 634.242L914.768 673.507V700.155H906.011V673.413L882.753 634.242H892.546L910.437 665.127L928.327 634.242H938.12ZM996.851 691.398C990.26 698.052 982.193 701.379 972.652 701.379C963.11 701.379 955.044 698.052 948.452 691.398C941.861 684.744 938.566 676.677 938.566 667.199C938.566 657.657 941.861 649.59 948.452 642.999C955.044 636.345 963.11 633.018 972.652 633.018C982.193 633.018 990.26 636.345 996.851 642.999C1003.51 649.59 1006.83 657.657 1006.83 667.199C1006.83 676.677 1003.51 684.744 996.851 691.398ZM954.479 685.466C959.375 690.362 965.433 692.81 972.652 692.81C979.871 692.81 985.897 690.362 990.731 685.466C995.627 680.507 998.075 674.418 998.075 667.199C998.075 659.917 995.627 653.828 990.731 648.931C985.897 643.972 979.871 641.493 972.652 641.493C965.433 641.493 959.375 643.972 954.479 648.931C949.645 653.828 947.228 659.917 947.228 667.199C947.228 674.418 949.645 680.507 954.479 685.466ZM1059.55 695.07C1054.97 699.276 1049.04 701.379 1041.76 701.379C1034.48 701.379 1028.51 699.276 1023.87 695.07C1019.29 690.801 1016.99 685.12 1016.99 678.027V634.242H1025.75V677.65C1025.75 682.296 1027.13 685.999 1029.89 688.761C1032.66 691.461 1036.61 692.81 1041.76 692.81C1046.91 692.81 1050.86 691.461 1053.62 688.761C1056.38 685.999 1057.77 682.296 1057.77 677.65V634.242H1066.43V678.027C1066.43 685.12 1064.14 690.801 1059.55 695.07ZM1119.84 700.155L1105.05 674.92H1089.52V700.155H1080.76V634.242H1107.13C1112.77 634.242 1117.61 636.251 1121.63 640.269C1125.64 644.223 1127.65 649.026 1127.65 654.675C1127.65 658.944 1126.37 662.836 1123.79 666.351C1121.28 669.866 1118.02 672.346 1114 673.79L1129.54 700.155H1119.84ZM1089.52 642.434V667.01H1107.13C1110.39 667.01 1113.15 665.818 1115.41 663.432C1117.73 660.984 1118.9 658.065 1118.9 654.675C1118.9 651.285 1117.73 648.398 1115.41 646.012C1113.15 643.627 1110.39 642.434 1107.13 642.434H1089.52ZM1177.96 700.155L1159.04 634.242H1168.27L1183.33 688.479L1199.34 634.242H1208.19L1224.2 688.479L1239.26 634.242H1248.49L1229.56 700.155H1219.4L1203.76 647.519L1188.13 700.155H1177.96ZM1267.61 691.869H1298.21V700.155H1258.85V634.242H1297.74V642.528H1267.61V662.773H1295.38V670.965H1267.61V691.869ZM1347.39 665.974C1350.4 667.418 1352.78 669.49 1354.54 672.189C1356.36 674.888 1357.27 677.996 1357.27 681.511C1357.27 686.784 1355.42 691.21 1351.72 694.788C1348.01 698.366 1343.49 700.155 1338.16 700.155H1309.72V634.242H1336.09C1341.23 634.242 1345.6 635.969 1349.17 639.421C1352.75 642.874 1354.54 647.142 1354.54 652.227C1354.54 658.065 1352.16 662.647 1347.39 665.974ZM1336.09 642.434H1318.48V662.585H1336.09C1338.85 662.585 1341.17 661.612 1343.05 659.666C1344.94 657.72 1345.88 655.334 1345.88 652.509C1345.88 649.747 1344.91 647.393 1342.96 645.447C1341.08 643.439 1338.79 642.434 1336.09 642.434ZM1338.16 691.963C1341.11 691.963 1343.59 690.927 1345.6 688.856C1347.61 686.784 1348.61 684.242 1348.61 681.228C1348.61 678.278 1347.57 675.767 1345.5 673.696C1343.49 671.624 1341.05 670.588 1338.16 670.588H1318.48V691.963H1338.16ZM1391.29 661.266C1396.31 662.208 1400.42 664.374 1403.62 667.764C1406.82 671.153 1408.42 675.453 1408.42 680.664C1408.42 687.066 1406.23 692.12 1401.83 695.823C1397.44 699.527 1392.1 701.379 1385.83 701.379C1380.8 701.379 1376.35 700.249 1372.45 697.989C1368.56 695.666 1365.8 692.339 1364.17 688.008L1371.51 683.677C1373.46 689.766 1378.23 692.81 1385.83 692.81C1389.91 692.81 1393.23 691.743 1395.81 689.609C1398.38 687.474 1399.67 684.493 1399.67 680.664C1399.67 676.834 1398.38 673.853 1395.81 671.718C1393.23 669.521 1389.91 668.423 1385.83 668.423H1383.57L1380.08 663.055L1395.34 642.434H1366.05V634.242H1405.6V641.963L1391.29 661.266ZM1506.08 634.242V700.155H1497.42V648.649L1475.86 684.524H1474.73L1453.16 648.743V700.155H1444.41V634.242H1454.29L1475.29 669.082L1496.2 634.242H1506.08ZM1564.53 700.155L1559.16 685.372H1529.5L1524.13 700.155H1514.81L1539.39 634.242H1549.27L1573.85 700.155H1564.53ZM1532.51 677.18H1556.15L1544.28 644.694L1532.51 677.18ZM1621.64 700.155L1606.86 674.92H1591.32V700.155H1582.57V634.242H1608.93C1614.58 634.242 1619.41 636.251 1623.43 640.269C1627.45 644.223 1629.46 649.026 1629.46 654.675C1629.46 658.944 1628.17 662.836 1625.6 666.351C1623.09 669.866 1619.82 672.346 1615.81 673.79L1631.34 700.155H1621.64ZM1591.32 642.434V667.01H1608.93C1612.2 667.01 1614.96 665.818 1617.22 663.432C1619.54 660.984 1620.7 658.065 1620.7 654.675C1620.7 651.285 1619.54 648.398 1617.22 646.012C1614.96 643.627 1612.2 642.434 1608.93 642.434H1591.32ZM1689 700.155H1678.26L1649.83 668.517V700.155H1641.07V634.242H1649.83V663.997L1677.32 634.242H1688.06L1658.96 666.257L1689 700.155ZM1706.49 691.869H1737.1V700.155H1697.74V634.242H1736.63V642.528H1706.49V662.773H1734.27V670.965H1706.49V691.869ZM1790.79 634.242V642.528H1771.3V700.155H1762.64V642.528H1743.24V634.242H1790.79ZM1800.4 634.242H1809.16V700.155H1800.4V634.242ZM1865.2 634.242H1873.96V700.155H1866.89L1833 650.909V700.155H1824.24V634.242H1831.3L1865.2 683.394V634.242ZM1952.56 667.481V671.436C1952.56 680.036 1949.61 687.192 1943.7 692.904C1937.8 698.554 1929.99 701.379 1920.26 701.379C1910.21 701.379 1901.9 698.083 1895.31 691.492C1888.78 684.838 1885.51 676.74 1885.51 667.199C1885.51 657.657 1888.78 649.59 1895.31 642.999C1901.9 636.345 1910.15 633.018 1920.07 633.018C1926.16 633.018 1931.75 634.493 1936.83 637.444C1941.92 640.331 1945.84 644.161 1948.6 648.931L1941.07 653.357C1939.18 649.779 1936.33 646.923 1932.5 644.788C1928.73 642.591 1924.56 641.493 1919.98 641.493C1912.44 641.493 1906.26 643.972 1901.43 648.931C1896.59 653.828 1894.18 659.917 1894.18 667.199C1894.18 674.48 1896.59 680.569 1901.43 685.466C1906.32 690.362 1912.63 692.81 1920.35 692.81C1926.94 692.81 1932.28 691.21 1936.36 688.008C1940.44 684.744 1942.92 680.538 1943.8 675.391H1919.6V667.481H1952.56ZM2012.54 634.242C2018.63 634.242 2023.69 636.282 2027.7 640.363C2031.78 644.38 2033.82 649.402 2033.82 655.428C2033.82 661.392 2031.78 666.414 2027.7 670.494C2023.69 674.574 2018.63 676.615 2012.54 676.615H1997.38V700.155H1988.63V634.242H2012.54ZM2012.54 668.423C2016.19 668.423 2019.2 667.199 2021.58 664.75C2023.97 662.239 2025.16 659.132 2025.16 655.428C2025.16 651.662 2023.97 648.555 2021.58 646.107C2019.2 643.658 2016.19 642.434 2012.54 642.434H1997.38V668.423H2012.54ZM2081.8 700.155L2076.44 685.372H2046.78L2041.41 700.155H2032.09L2056.66 634.242H2066.55L2091.13 700.155H2081.8ZM2049.79 677.18H2073.42L2061.56 644.694L2049.79 677.18ZM2138.92 700.155L2124.14 674.92H2108.6V700.155H2099.84V634.242H2126.21C2131.86 634.242 2136.69 636.251 2140.71 640.269C2144.73 644.223 2146.74 649.026 2146.74 654.675C2146.74 658.944 2145.45 662.836 2142.88 666.351C2140.36 669.866 2137.1 672.346 2133.08 673.79L2148.62 700.155H2138.92ZM2108.6 642.434V667.01H2126.21C2129.47 667.01 2132.23 665.818 2134.49 663.432C2136.82 660.984 2137.98 658.065 2137.98 654.675C2137.98 651.285 2136.82 648.398 2134.49 646.012C2132.23 643.627 2129.47 642.434 2126.21 642.434H2108.6ZM2199.15 634.242V642.528H2179.66V700.155H2171V642.528H2151.6V634.242H2199.15ZM2249.72 634.242H2258.48V700.155H2251.42L2217.52 650.909V700.155H2208.76V634.242H2215.82L2249.72 683.394V634.242ZM2282.28 691.869H2312.88V700.155H2273.52V634.242H2312.41V642.528H2282.28V662.773H2310.05V670.965H2282.28V691.869ZM2363.47 700.155L2348.68 674.92H2333.15V700.155H2324.39V634.242H2350.76C2356.41 634.242 2361.24 636.251 2365.26 640.269C2369.27 644.223 2371.28 649.026 2371.28 654.675C2371.28 658.944 2370 662.836 2367.42 666.351C2364.91 669.866 2361.65 672.346 2357.63 673.79L2373.17 700.155H2363.47ZM2333.15 642.434V667.01H2350.76C2354.02 667.01 2356.78 665.818 2359.04 663.432C2361.36 660.984 2362.53 658.065 2362.53 654.675C2362.53 651.285 2361.36 648.398 2359.04 646.012C2356.78 643.627 2354.02 642.434 2350.76 642.434H2333.15Z" fill="black"/>
<path fill-rule="evenodd" clip-rule="evenodd" d="M37 52.2687C37 23.4015 58.4741 0 84.9637 0H782.036C808.526 0 830 23.4015 830 52.2687V177.485C830 187.107 822.842 194.908 814.012 194.908C805.182 194.908 798.024 187.107 798.024 177.485V52.2687C798.024 42.6463 790.866 34.8458 782.036 34.8458H84.9637C76.1338 34.8458 68.9758 42.6463 68.9758 52.2687V738.731C68.9758 748.354 76.1338 756.154 84.9637 756.154H782.036C790.866 756.154 798.024 748.354 798.024 738.731V624.554C798.024 614.932 805.182 607.131 814.012 607.131C822.842 607.131 830 614.932 830 624.554V738.731C830 767.599 808.526 791 782.036 791H84.9637C58.4741 791 37 767.598 37 738.731V52.2687Z" fill="black"/>
</g>
<defs>
<clipPath id="clip0_99_6">
<rect width="2500" height="791.492" fill="white"/>
</clipPath>
</defs>
</svg>
