<svg width="512" height="512" viewBox="0 0 512 512" fill="none" xmlns="http://www.w3.org/2000/svg">
<rect width="512" height="512" rx="80" fill="black"/>
<path d="M295.033 183H374.167C397.799 183 415.36 190.372 428.369 202.296C442.895 215.738 452.001 235.034 452.001 256.28C452.001 275.576 444.846 292.921 433.139 305.712C419.697 320.455 400.401 329.561 374.167 329.561H295.033C288.746 329.561 285.494 326.525 285.494 320.238V192.106C285.494 186.035 288.746 183 295.033 183ZM374.167 221.808H327.554C325.603 221.808 324.736 222.676 324.736 224.844V287.934C324.736 290.102 325.603 290.969 327.554 290.969H374.167C388.043 290.969 397.366 286.633 403.653 279.695C409.29 273.625 412.759 265.386 412.759 256.497C412.759 246.741 408.639 237.635 401.919 231.348C395.631 225.494 387.393 221.808 374.167 221.808Z" fill="white"/>
<path d="M212.037 183H262.987C261.903 184.518 260.385 186.252 258.651 187.77L192.959 251.294L267.106 325.008C268.624 326.525 269.708 328.043 270.792 329.561H214.639C213.555 327.826 212.471 326.525 211.17 325.224L164.557 276.66L115.342 325.224C113.824 326.742 112.524 328.26 111.44 329.561H59.8398C60.9239 327.826 62.0079 326.742 63.7423 325.008L139.408 251.294L73.9322 187.77C71.981 186.035 70.8969 184.734 69.8129 183H124.448C125.315 184.301 126.616 186.035 128.134 187.77L166.942 227.228L207.918 187.77C209.653 186.252 210.953 184.518 212.037 183Z" fill="white"/>
</svg>
